# xmcd
#
# Track frame offsets: 
#        150
#        12520
#        25452
#        38630
#        48350
#        60477
#        74200
#        86937
#        98065
#        110050
#        122855
#        136102
#
# Disc length: 1958 seconds
#
# Revision: 1
# Processed by: cddbd v1.5PL3 Copyright (c) Steve Scherf et al.
# Submitted via: ExactAudioCopy v0.90b4
#
DISCID=ac07a40c
DTITLE=Mel Tillis - 36 All-Time Greatest Hits - Disc 2
DYEAR=1900
DGENRE=Country
TTITLE0=Commercial Affection
TTITLE1=Best Way I Know How
TTITLE2=Heart Over Mind
TTITLE3=I Ain't Never
TTITLE4=Mental Revenge
TTITLE5=Love Revival
TTITLE6=Good Woman Blues
TTITLE7=Heart Healer
TTITLE8=Burning Memories
TTITLE9=I Got The Hoss
TTITLE10=What Did I Promise Her Last Night
TTITLE11=I Belive In You
EXTD=
EXTT0=
EXTT1=
EXTT2=
EXTT3=
EXTT4=
EXTT5=
EXTT6=
EXTT7=
EXTT8=
EXTT9=
EXTT10=
EXTT11=
PLAYORDER=
